<?xml version="1.0" encoding="iso-8859-1"?>
<!-- Generator: Adobe Illustrator 19.0.0, SVG Export Plug-In . SVG Version: 6.00 Build 0)  -->
<svg version="1.1" id="Layer_1" xmlns="http://www.w3.org/2000/svg" xmlns:xlink="http://www.w3.org/1999/xlink" x="0px" y="0px"
	 viewBox="0 0 511.997 511.997" style="enable-background:new 0 0 511.997 511.997;" xml:space="preserve">
<circle style="fill:#0F7986;" cx="255.999" cy="255.999" r="255.999"/>
<path style="fill:#EEF3F7;" d="M257.542,459.608c0,0,0,0,14.498,0c22.403-5.273,72.481-42.17,77.754-51.395s10.542-73.8,10.542-73.8
	s2.636-6.589,14.498-22.403c9.225-6.591,15.814-18.45,18.45-22.406c2.636-3.953-1.316-17.13-5.273-27.676
	c14.498-65.893,6.589-100.157,6.589-100.157C373.513,51.07,261.495,52.389,261.495,52.389h-11.027
	c0,0-112.018-1.316-133.104,109.382c0,0-7.909,34.264,6.589,100.157c-3.953,10.542-7.909,23.723-5.273,27.676
	c2.636,3.953,9.225,15.814,18.45,22.406c11.861,15.814,14.498,22.403,14.498,22.403s5.273,64.576,10.544,73.8
	c5.273,9.225,55.351,46.126,77.754,51.395c14.498,0,14.498,0,14.498,0h3.12V459.608z"/>
<g>
	<path style="fill:#C8C8C8;" d="M195.603,194.719c0,0-35.581,0-51.397,34.264c-6.589,23.723,6.592,42.17,15.814,40.853
		c9.225-1.316,59.304-10.542,64.576-32.944c5.273-22.406,6.589-46.126-28.994-42.172H195.603z"/>
	<path style="fill:#C8C8C8;" d="M316.539,194.719c0,0,35.581,0,51.397,34.264c6.589,23.723-6.589,42.17-15.814,40.853
		c-9.225-1.316-59.304-10.542-64.576-32.944C282.274,214.486,280.955,190.765,316.539,194.719z"/>
	<path style="fill:#C8C8C8;" d="M261.424,233.596c0,0,41.512,59.304,17.792,73.143c-11.861,0-23.723,0-23.723,0h4.026
		c0,0-11.861,0-23.723,0c-23.723-13.839,17.792-73.143,17.792-73.143L261.424,233.596L261.424,233.596z"/>
</g>
<g>
	<path style="fill:#D9DADA;" d="M134.983,296.853c-9.855-4.926-14.393-11.609-16.218-18.169c-1.07,4.902-1.358,9.004-0.079,10.923
		c2.634,3.953,9.223,15.814,18.448,22.406c11.861,15.814,14.498,22.403,14.498,22.403s5.273,64.576,10.544,73.8
		c0.688,1.202,2.162,2.888,4.208,4.897c-5.85-21.813,0.229-42.459,0.229-49.048c0-9.884,33.606,7.909,49.42,7.909s0-13.839,0-35.583
		C216.032,314.647,162.657,310.692,134.983,296.853z"/>
	<path style="fill:#D9DADA;" d="M375.921,296.853c9.855-4.926,14.393-11.609,16.218-18.169c1.07,4.902,1.356,9.004,0.079,10.923
		c-2.634,3.953-9.223,15.814-18.45,22.406c-11.861,15.814-14.495,22.403-14.495,22.403s-5.273,64.576-10.544,73.8
		c-0.688,1.202-2.164,2.888-4.21,4.897c5.85-21.813-0.229-42.459-0.229-49.048c0-9.884-33.606,7.909-49.42,7.909s0-13.839,0-35.583
		c0-21.744,53.372-25.698,81.048-39.537h0.002V296.853z"/>
</g>
<path style="fill:#0F7986;" d="M315.529,350.226h-59.304h-1.316h-59.304l-15.814-9.225l-7.279-1.041
	c1.732,5.566,4.774,14.327,9.918,26.081c18.498,27.132,66.989,25.411,73.143,25.079c6.151,0.333,54.64,2.054,73.14-25.079
	c5.141-11.754,8.186-20.515,9.918-26.081l-7.282,1.041l-15.814,9.225H315.529z"/>
<g>
	<path style="fill:#D9DADA;" d="M117.366,161.771c0,0-7.35,32.221,5.341,94.082c1.419,1.241,2.869,2.4,4.367,3.441
		c-11.959-39.293,14.429-59.359,21.826-64.09c-2.046-4.693-5.194-12.462-9.964-24.863c-14.377-35.941,20.37-78.131,40.402-98.483
		c-26.718,15.14-52.853,42.039-61.971,89.917v-0.003H117.366z"/>
	<path style="fill:#D9DADA;" d="M394.668,161.771c0,0,7.353,32.221-5.341,94.082c-1.419,1.241-2.869,2.4-4.367,3.441
		c11.961-39.293-14.429-59.359-21.826-64.09c2.046-4.693,5.194-12.462,9.964-24.863c14.377-35.941-20.37-78.131-40.402-98.483
		c26.718,15.14,52.85,42.039,61.971,89.917L394.668,161.771L394.668,161.771z"/>
</g>
<g>
	<path style="fill:#FEFEFE;" d="M292.121,387.892l1.202-11.282c0.296-2.789,8.863-2.55,11.678,0.317
		c1.049,1.07,1.55,3.528,1.771,6.188c-4.751,2.059-9.731,3.612-14.649,4.774L292.121,387.892L292.121,387.892z M205.174,383.465
		c4.787,2.007,9.781,3.507,14.696,4.627l-1.223-11.479c-0.296-2.789-8.863-2.55-11.677,0.317
		C205.877,378.048,205.376,380.673,205.174,383.465z M221.866,388.527c5.351,1.115,10.552,1.794,15.224,2.196l-1.272-14.464
		c-0.231-2.613-14.469-1.495-14.545-0.533c-0.055,0.698,0.359,8.543,0.593,12.798V388.527z M239.407,390.903
		c7.34,0.514,13.078,0.362,15.521,0.25v-14.041c0-5.209-16.194-0.585-16.562-0.317C238.085,376.996,238.969,386.408,239.407,390.903
		z M256.963,391.184c2.859,0.105,8.506,0.192,15.526-0.338c0.441-4.519,1.314-13.852,1.036-14.054
		c-0.367-0.267-16.562-4.891-16.562,0.317v14.072V391.184z M274.804,390.655c4.698-0.43,9.902-1.141,15.229-2.29
		c0.234-4.286,0.638-11.946,0.582-12.635c-0.076-0.963-14.314-2.083-14.544,0.533L274.804,390.655z"/>
	<path style="fill:#FEFEFE;" d="M308.439,345.691v19.534c0,0.955,7.628-0.446,12.102-2.494c4.472-2.049,3.185-15.129,3.185-15.129
		S318.841,343.065,308.439,345.691z"/>
	<path style="fill:#FEFEFE;" d="M257.005,352.849v18.047c0,5.21,16.194,0.585,16.562,0.317c0.367-0.264-1.275-16.454-1.275-16.454
		S267.407,350.223,257.005,352.849z"/>
	<path style="fill:#FEFEFE;" d="M274.626,351.955l1.487,16.879c0.231,2.613,14.469,1.495,14.544,0.533
		c0.076-0.963-0.743-15.5-0.743-15.5s-4.884-4.535-15.289-1.909V351.955z"/>
	<path style="fill:#FEFEFE;" d="M291.455,350.467l1.909,17.942c0.299,2.789,8.863,2.55,11.678-0.317
		c2.811-2.867,1.7-15.714,1.7-15.714S301.858,347.842,291.455,350.467z"/>
</g>
<path style="fill:#EEF3F7;" d="M339.264,340.545l-7.454,20.297c0,0-11.053-15.743-16.281-10.615
	c-5.228,5.125-3.538,2.623-10.97,2.623s-12.522,2.55-12.522,2.55s-14.917-3.161-17.409,0c-2.492,3.161-9.977-5.096-17.621,0v-8.493
	c0,0,39.277-3.609,54.139-5.519c14.862-1.912,28.121-0.839,28.121-0.839L339.264,340.545z"/>
<g>
	<path style="fill:#ABACAC;" d="M285.456,226.161c2.267-10.62,10.502-17.596,31.082-15.305c0,0,35.581,0,51.397,34.264
		c0.425,1.529,0.768,3.037,1.033,4.519c1.16-6.03,1.073-13.073-1.033-20.654c-15.814-34.264-51.397-34.264-51.397-34.264
		c-29.894-3.323-33.742,12.89-31.082,31.442V226.161z"/>
	<path style="fill:#ABACAC;" d="M226.688,226.161c-2.267-10.62-10.502-17.596-31.082-15.305c0,0-35.581,0-51.397,34.264
		c-0.425,1.529-0.768,3.037-1.033,4.519c-1.16-6.03-1.073-13.073,1.033-20.654c15.814-34.264,51.397-34.264,51.397-34.264
		c29.894-3.323,33.742,12.89,31.082,31.442V226.161z"/>
</g>
<g>
	<path style="fill:#FEFEFE;" d="M203.534,345.691v19.534c0,0.955-7.628-0.446-12.102-2.494c-4.472-2.049-3.185-15.129-3.185-15.129
		S193.132,343.065,203.534,345.691z"/>
	<path style="fill:#FEFEFE;" d="M254.969,352.849v18.047c0,5.21-16.194,0.585-16.559,0.317c-0.367-0.264,1.273-16.454,1.273-16.454
		S244.566,350.223,254.969,352.849z"/>
	<path style="fill:#FEFEFE;" d="M237.348,351.955l-1.485,16.879c-0.231,2.613-14.469,1.495-14.545,0.533
		c-0.076-0.962,0.743-15.5,0.743-15.5s4.884-4.535,15.287-1.909V351.955z"/>
	<path style="fill:#FEFEFE;" d="M220.6,350.467l-1.912,17.942c-0.296,2.789-8.863,2.55-11.677-0.317
		c-2.814-2.867-1.7-15.714-1.7-15.714s4.884-4.535,15.287-1.909h0.002V350.467z"/>
</g>
<path style="fill:#EEF3F7;" d="M171.98,339.959l7.284,19.89c0,0,11.956-14.752,17.183-9.624c5.228,5.125,3.538,2.623,10.967,2.623
	c7.431,0,12.522,2.55,12.522,2.55s14.92-3.161,17.409,0c2.492,3.161,9.977-5.096,17.621,0v-8.493c0,0-39.277-3.609-54.139-5.519
	c-14.862-1.912-28.85-1.424-28.85-1.424L171.98,339.959z"/>
<g>
	<path style="fill:#FEFEFE;" d="M331.81,360.841l-3.174-4.026c0,0-9.328,7.056-9.54,11.938c-0.21,4.881-2.439,1.146-8.068,4.881
		c-5.629,3.738-1.592,8.263-1.592,8.263S323.421,380.907,331.81,360.841z"/>
	<path style="fill:#FEFEFE;" d="M179.436,359.637l3.412-2.819c0,0,9.328,7.056,9.54,11.938s2.439,1.146,8.068,4.881
		c5.629,3.738,1.592,8.263,1.592,8.263s-15.5-2.726-22.611-22.258L179.436,359.637z"/>
</g>
<g>
</g>
<g>
</g>
<g>
</g>
<g>
</g>
<g>
</g>
<g>
</g>
<g>
</g>
<g>
</g>
<g>
</g>
<g>
</g>
<g>
</g>
<g>
</g>
<g>
</g>
<g>
</g>
<g>
</g>
</svg>
