<?xml version="1.0" encoding="iso-8859-1"?>
<!-- Generator: Adobe Illustrator 19.0.0, SVG Export Plug-In . SVG Version: 6.00 Build 0)  -->
<svg version="1.1" id="Layer_1" xmlns="http://www.w3.org/2000/svg" xmlns:xlink="http://www.w3.org/1999/xlink" x="0px" y="0px"
	 viewBox="0 0 511.997 511.997" style="enable-background:new 0 0 511.997 511.997;" xml:space="preserve">
<circle style="fill:#0F7986;" cx="255.999" cy="255.999" r="255.999"/>
<path style="fill:#D1D2D4;" d="M68.015,121.933h380.784v261.647c0,8.648-7.077,15.722-15.722,15.722H83.739
	c-8.648,0-15.722-7.074-15.722-15.722V121.933H68.015z"/>
<path style="fill:#FFFFFF;" d="M66.053,111.995h384.71v260.283c0,11.106-9.083,20.189-20.189,20.189H86.244
	c-11.106,0-20.189-9.083-20.189-20.189V111.995H66.053z"/>
<rect x="66.051" y="111.991" style="fill:#ED4C54;" width="384.706" height="39.767"/>
<rect x="66.051" y="111.991" style="fill:#FF5B62;" width="385.635" height="5.988"/>
<path style="fill:#21D0C3;" d="M360.393,172.077h26.563v26.563h-26.563V172.077z"/>
<path style="fill:#FAD24D;" d="M438.427,55.998c2.649,0.53,5.241,1.225,7.756,2.075l11.622-15.588l17.514,10.109l-7.695,17.878
	c2.007,1.768,3.9,3.662,5.671,5.671l17.876-7.696l10.111,17.514l-15.588,11.622c0.85,2.518,1.548,5.11,2.075,7.759l19.316,2.272
	v20.22l-19.313,2.272c-0.53,2.652-1.225,5.241-2.075,7.759l15.588,11.622L491.174,167l-17.878-7.696
	c-1.768,2.007-3.662,3.9-5.668,5.668l7.696,17.878l-17.514,10.111l-11.625-15.591c-2.518,0.85-5.107,1.548-7.756,2.075
	l-2.272,19.316h-20.223l-2.272-19.313c-2.649-0.53-5.241-1.225-7.759-2.075l-11.622,15.588l-17.514-10.111l7.696-17.878
	c-2.006-1.768-3.9-3.662-5.671-5.668L360.915,167l-10.112-17.514l15.591-11.625c-0.85-2.518-1.548-5.107-2.075-7.756l-19.318-2.272
	V107.61l19.316-2.272c0.53-2.649,1.225-5.241,2.075-7.759l-15.59-11.621l10.109-17.514l17.878,7.696
	c1.768-2.007,3.662-3.9,5.671-5.668l-7.696-17.878l17.514-10.111l11.626,15.589c2.518-0.85,5.107-1.548,7.756-2.075l2.272-19.318
	h20.22l2.272,19.318H438.427z M426.043,76.001c23.043,0,41.724,18.681,41.724,41.724s-18.681,41.724-41.724,41.724
	c-23.043,0-41.724-18.681-41.724-41.724S403.001,76.001,426.043,76.001z"/>
<circle style="fill:#21D0C3;" cx="426.045" cy="117.729" r="51.16"/>
<g>
	<path style="fill:#FFFFFF;" d="M381.846,116.026h10.599v3.394h-10.602v-3.396L381.846,116.026z M470.244,119.42h-10.599v-3.394
		h10.599V119.42z M424.347,161.923v-10.599h3.394v10.599h-3.396H424.347z M427.741,73.523v10.602h-3.394V73.523H427.741z"/>
	<path style="fill:#FFFFFF;" d="M425.996,90.407L425.996,90.407c1.319,0,2.4,1.078,2.4,2.397V116.1h23.295
		c1.319,0,2.397,1.078,2.397,2.397l0,0c0,1.319-1.078,2.397-2.397,2.397h-25.693v-2.397h-2.397V92.804
		c0-1.319,1.078-2.397,2.397-2.397H425.996z"/>
</g>
<circle style="fill:#FAD24D;" cx="426.045" cy="117.719" r="4.669"/>
<g>
	<path style="fill:#D1D2D4;" d="M160.386,172.077h26.563v26.563h-26.563V172.077z"/>
	<path style="fill:#D1D2D4;" d="M200.386,172.077h26.563v26.563h-26.563V172.077z"/>
	<path style="fill:#D1D2D4;" d="M240.388,172.077h26.563v26.563h-26.563V172.077z"/>
</g>
<path style="fill:#21D0C3;" d="M280.389,172.077h26.563v26.563h-26.563V172.077z"/>
<path style="fill:#D1D2D4;" d="M320.392,172.077h26.563v26.563h-26.563V172.077z"/>
<path style="fill:#FAD24D;" d="M120.383,172.077h26.563v26.563h-26.563C120.383,198.64,120.383,172.077,120.383,172.077z"/>
<path style="fill:#D1D2D4;" d="M160.386,213.909h26.563v26.563h-26.563V213.909z"/>
<path style="fill:#21D0C3;" d="M200.386,213.909h26.563v26.563h-26.563V213.909z"/>
<path style="fill:#D1D2D4;" d="M240.388,213.909h26.563v26.563h-26.563V213.909z"/>
<path style="fill:#FAD24D;" d="M280.389,213.909h26.563v26.563h-26.563V213.909z"/>
<g>
	<path style="fill:#D1D2D4;" d="M320.392,213.909h26.563v26.563h-26.563V213.909z"/>
	<path style="fill:#D1D2D4;" d="M360.393,213.909h26.563v26.563h-26.563V213.909z"/>
	<path style="fill:#D1D2D4;" d="M120.383,213.909h26.563v26.563h-26.563C120.383,240.472,120.383,213.909,120.383,213.909z"/>
	<path style="fill:#D1D2D4;" d="M160.386,255.743h26.563v26.563h-26.563V255.743z"/>
	<path style="fill:#D1D2D4;" d="M200.386,255.743h26.563v26.563h-26.563V255.743z"/>
	<path style="fill:#D1D2D4;" d="M240.388,255.743h26.563v26.563h-26.563V255.743z"/>
	<path style="fill:#D1D2D4;" d="M280.389,255.743h26.563v26.563h-26.563V255.743z"/>
	<path style="fill:#D1D2D4;" d="M320.392,255.743h26.563v26.563h-26.563V255.743z"/>
</g>
<g>
	<path style="fill:#FAD24D;" d="M360.393,255.743h26.563v26.563h-26.563V255.743z"/>
	<path style="fill:#FAD24D;" d="M120.383,255.743h26.563v26.563h-26.563C120.383,282.306,120.383,255.743,120.383,255.743z"/>
</g>
<path style="fill:#FFBA1B;" d="M160.386,297.577h26.563v26.563h-26.563V297.577z"/>
<g>
	<path style="fill:#D1D2D4;" d="M200.386,297.577h26.563v26.563h-26.563V297.577z"/>
	<path style="fill:#D1D2D4;" d="M240.388,297.577h26.563v26.563h-26.563V297.577z"/>
	<path style="fill:#D1D2D4;" d="M280.389,297.577h26.563v26.563h-26.563V297.577z"/>
</g>
<path style="fill:#21D0C3;" d="M320.392,297.577h26.563v26.563h-26.563V297.577z"/>
<g>
	<path style="fill:#D1D2D4;" d="M360.393,297.577h26.563v26.563h-26.563V297.577z"/>
	<path style="fill:#D1D2D4;" d="M120.383,297.577h26.563v26.563h-26.563C120.383,324.14,120.383,297.577,120.383,297.577z"/>
	<path style="fill:#D1D2D4;" d="M160.386,337.874h26.563v26.563h-26.563V337.874z"/>
</g>
<path style="fill:#21D0C3;" d="M120.383,337.874h26.563v26.563h-26.563C120.383,364.437,120.383,337.874,120.383,337.874z"/>
<path style="fill:#FFFFFF;" d="M166.451,309.191c-0.414-0.49-0.349-1.225,0.142-1.637c0.49-0.412,1.225-0.349,1.637,0.142
	l4.118,4.899l11.258-9.868c0.485-0.422,1.22-0.372,1.642,0.11s0.375,1.22-0.11,1.642l-12.15,10.649l0,0l-0.018,0.016
	c-0.49,0.412-1.225,0.349-1.637-0.142l-4.881-5.81V309.191z"/>
<path style="fill:#15BDB2;" d="M175.854,278.34c8.446,0,16.094,3.425,21.63,8.96c5.535,5.535,8.957,13.183,8.957,21.627
	c0,8.446-3.423,16.094-8.957,21.627c-5.534,5.534-13.183,8.96-21.63,8.96c-8.446,0-16.092-3.423-21.627-8.96
	c-5.534-5.534-8.957-13.183-8.957-21.627c0-8.446,3.423-16.094,8.957-21.627C159.762,281.766,167.41,278.34,175.854,278.34z
	 M194.603,290.178c-4.798-4.798-11.426-7.767-18.749-7.767c-7.321,0-13.952,2.969-18.749,7.767
	c-4.798,4.798-7.767,11.429-7.767,18.749s2.969,13.952,7.767,18.749c4.798,4.798,11.426,7.767,18.749,7.767
	s13.952-2.969,18.749-7.767c4.798-4.798,7.767-11.429,7.767-18.749S199.4,294.975,194.603,290.178z"/>
<g>
</g>
<g>
</g>
<g>
</g>
<g>
</g>
<g>
</g>
<g>
</g>
<g>
</g>
<g>
</g>
<g>
</g>
<g>
</g>
<g>
</g>
<g>
</g>
<g>
</g>
<g>
</g>
<g>
</g>
</svg>
