<?xml version="1.0" encoding="iso-8859-1"?>
<!-- Generator: Adobe Illustrator 19.0.0, SVG Export Plug-In . SVG Version: 6.00 Build 0)  -->
<svg version="1.1" id="Layer_1" xmlns="http://www.w3.org/2000/svg" xmlns:xlink="http://www.w3.org/1999/xlink" x="0px" y="0px"
	 viewBox="0 0 512 512" style="enable-background:new 0 0 512 512;" xml:space="preserve">
<circle style="fill:#FF5B62;" cx="256" cy="256" r="256"/>
<ellipse style="fill:#ED4C54;" cx="256" cy="408.851" rx="191.097" ry="11.889"/>
<rect x="87.03" y="119.916" style="fill:#EEF3F7;" width="337.94" height="220.02"/>
<path style="fill:#FFFFFF;" d="M91.525,91.257h328.949c5.381,0,9.783,4.401,9.783,9.784v22.621H81.743v-22.621
	C81.743,95.658,86.145,91.257,91.525,91.257L91.525,91.257z"/>
<rect x="87.03" y="321.532" style="fill:#EEF3F7;" width="337.94" height="85.902"/>
<path style="fill:#D9DADA;" d="M424.97,407.441v-60.508H87.03L424.97,407.441z"/>
<rect x="87.03" y="321.532" style="fill:#FFFFFF;" width="337.94" height="25.399"/>
<g>
	<rect x="184.55" y="346.932" style="fill:#21D0C3;" width="142.911" height="60.502"/>
	<path style="fill:#21D0C3;" d="M324.058,115.988H321.1V97.155h2.958v8.072h3.363v-8.072h3.013v18.833h-3.013v-8.072h-3.363V115.988
		z M337.589,111.658c0,0.68,0.139,1.161,0.417,1.438c0.278,0.279,0.651,0.417,1.116,0.417c0.467,0,0.838-0.138,1.118-0.417
		c0.277-0.277,0.416-0.758,0.416-1.438v-10.171c0-0.682-0.139-1.161-0.416-1.438c-0.279-0.279-0.651-0.417-1.118-0.417
		c-0.466,0-0.838,0.138-1.116,0.417c-0.278,0.277-0.417,0.757-0.417,1.438V111.658z M334.628,101.676
		c0-1.525,0.385-2.696,1.158-3.511c0.77-0.816,1.883-1.225,3.335-1.225c1.453,0,2.565,0.408,3.337,1.225
		c0.77,0.815,1.155,1.986,1.155,3.511v9.792c0,1.525-0.384,2.696-1.155,3.511c-0.772,0.816-1.883,1.225-3.337,1.225
		c-1.452,0-2.565-0.408-3.335-1.225c-0.772-0.815-1.158-1.986-1.158-3.511V101.676z M347.43,101.676c0-1.525,0.363-2.696,1.09-3.511
		c0.727-0.816,1.815-1.225,3.268-1.225c1.453,0,2.543,0.408,3.27,1.225c0.728,0.815,1.089,1.986,1.089,3.511v0.592h-2.798v-0.781
		c0-0.682-0.131-1.161-0.39-1.438c-0.26-0.279-0.624-0.417-1.09-0.417c-0.467,0-0.828,0.138-1.089,0.417
		c-0.26,0.277-0.39,0.757-0.39,1.438c0,0.647,0.144,1.217,0.43,1.71c0.287,0.493,0.646,0.959,1.076,1.399
		c0.43,0.438,0.892,0.878,1.386,1.317c0.493,0.44,0.955,0.919,1.385,1.439c0.43,0.521,0.788,1.113,1.076,1.776
		c0.286,0.665,0.43,1.444,0.43,2.341c0,1.525-0.371,2.696-1.116,3.511c-0.745,0.816-1.843,1.225-3.296,1.225
		c-1.453,0-2.552-0.408-3.296-1.225c-0.745-0.815-1.118-1.986-1.118-3.511v-1.157h2.8v1.346c0,0.68,0.138,1.155,0.416,1.425
		c0.278,0.268,0.651,0.403,1.118,0.403c0.466,0,0.838-0.135,1.115-0.403c0.279-0.269,0.417-0.745,0.417-1.425
		c0-0.647-0.144-1.217-0.43-1.71c-0.287-0.493-0.646-0.959-1.076-1.399c-0.43-0.44-0.892-0.878-1.385-1.317
		c-0.493-0.44-0.956-0.919-1.385-1.44c-0.431-0.52-0.789-1.112-1.077-1.776C347.574,103.352,347.43,102.572,347.43,101.676z
		 M364.512,97.155c1.488,0,2.596,0.393,3.322,1.184c0.728,0.788,1.09,1.946,1.09,3.471v2.447c0,1.525-0.363,2.682-1.09,3.471
		c-0.727,0.788-1.834,1.185-3.322,1.185h-1.399v7.075h-2.96V97.155L364.512,97.155L364.512,97.155z M363.113,99.846v6.378h1.399
		c0.467,0,0.825-0.126,1.076-0.377c0.252-0.252,0.376-0.717,0.376-1.399v-2.825c0-0.68-0.125-1.147-0.376-1.398
		c-0.251-0.253-0.61-0.377-1.076-0.377H363.113L363.113,99.846z M372.578,97.155h2.96v18.833h-2.96V97.155z M379.113,97.155h9.148
		v2.69h-3.094v16.142h-2.96V99.845h-3.094L379.113,97.155L379.113,97.155z M400.39,115.988h-2.987l-0.51-3.417h-3.632l-0.512,3.417
		h-2.719l3.014-18.833h4.332L400.39,115.988z M393.637,110.016h2.852l-1.426-9.524L393.637,110.016z M404.045,97.155h2.96v16.141
		h4.869v2.691h-7.83V97.155z"/>
</g>
<path style="fill:#D9DADA;" d="M87.029,123.661h337.94v10.364l-337.94-6.946C87.029,127.079,87.029,123.661,87.029,123.661z"/>
<g>
	<path style="fill:#21D0C3;" d="M98.966,136.837h37.688v18.476H98.966V136.837z M330.267,136.837h37.688v18.476h-37.688V136.837z
		 M375.345,136.837h37.688v18.476h-37.688V136.837z M214.616,136.837h37.688v18.476h-37.688V136.837z M259.695,136.837h37.688
		v18.476h-37.688V136.837z M144.044,136.837h37.688v18.476h-37.688L144.044,136.837L144.044,136.837z"/>
	<path style="fill:#21D0C3;" d="M98.966,175.155h37.688v18.475H98.966V175.155z M330.267,175.155h37.688v18.475h-37.688V175.155z
		 M375.345,175.155h37.688v18.475h-37.688V175.155z M214.616,175.155h37.688v18.475h-37.688V175.155z M259.695,175.155h37.688
		v18.475h-37.688V175.155z M144.044,175.155h37.688v18.475h-37.688L144.044,175.155L144.044,175.155z"/>
	<path style="fill:#21D0C3;" d="M98.966,213.472h37.688v18.475H98.966V213.472z M330.267,213.472h37.688v18.475h-37.688V213.472z
		 M375.345,213.472h37.688v18.475h-37.688V213.472z M214.616,213.472h37.688v18.475h-37.688V213.472z M259.695,213.472h37.688
		v18.475h-37.688V213.472z M144.044,213.472h37.688v18.475h-37.688L144.044,213.472L144.044,213.472z"/>
	<path style="fill:#21D0C3;" d="M98.966,251.789h37.688v18.476H98.966V251.789z M330.267,251.789h37.688v18.476h-37.688V251.789z
		 M375.345,251.789h37.688v18.476h-37.688V251.789z M214.616,251.789h37.688v18.476h-37.688V251.789z M259.695,251.789h37.688
		v18.476h-37.688V251.789z M144.044,251.789h37.688v18.476h-37.688L144.044,251.789L144.044,251.789z"/>
	<path style="fill:#21D0C3;" d="M98.966,290.107h37.688v18.475H98.966V290.107z M330.267,290.107h37.688v18.475h-37.688V290.107z
		 M375.345,290.107h37.688v18.475h-37.688V290.107z M214.616,290.107h37.688v18.475h-37.688V290.107z M259.695,290.107h37.688
		v18.475h-37.688V290.107z M144.044,290.107h37.688v18.475h-37.688L144.044,290.107L144.044,290.107z"/>
</g>
<g>
	<rect x="87.03" y="162.822" style="fill:#D9DADA;" width="337.94" height="4.849"/>
	<rect x="87.03" y="202.135" style="fill:#D9DADA;" width="337.94" height="4.849"/>
	<rect x="87.03" y="239.572" style="fill:#D9DADA;" width="337.94" height="4.849"/>
	<rect x="87.03" y="279.564" style="fill:#D9DADA;" width="337.94" height="4.849"/>
</g>
<path style="fill:#15BDB2;" d="M327.454,389.983v-43.049h-142.91v17.46L327.454,389.983z"/>
<path style="fill:#FF5B62;" d="M299.803,96.64h5.394v7.235h7.234v5.394h-7.234v7.234h-5.394v-7.234h-7.235v-5.394h7.235V96.64z"/>
<rect x="255.281" y="351.673" style="fill:#EBECEC;" width="1.429" height="55.764"/>
<g>
	<path style="fill:#FEFEFE;" d="M327.454,407.441h3.143v-60.508h-3.143V407.441z"/>
	<rect x="181.406" y="346.932" style="fill:#FEFEFE;" width="3.143" height="60.502"/>
</g>
<rect x="87.03" y="318.847" style="fill:#D9DADA;" width="337.94" height="2.691"/>
<g>
</g>
<g>
</g>
<g>
</g>
<g>
</g>
<g>
</g>
<g>
</g>
<g>
</g>
<g>
</g>
<g>
</g>
<g>
</g>
<g>
</g>
<g>
</g>
<g>
</g>
<g>
</g>
<g>
</g>
</svg>
