<?xml version="1.0" encoding="iso-8859-1"?>
<!-- Generator: Adobe Illustrator 19.0.0, SVG Export Plug-In . SVG Version: 6.00 Build 0)  -->
<svg version="1.1" id="Layer_1" xmlns="http://www.w3.org/2000/svg" xmlns:xlink="http://www.w3.org/1999/xlink" x="0px" y="0px"
	 viewBox="0 0 512 512" style="enable-background:new 0 0 512 512;" xml:space="preserve">
<circle style="fill:#0F7986;" cx="256" cy="256" r="256"/>
<ellipse style="fill:#076673;" cx="256" cy="438.284" rx="129.038" ry="10.53"/>
<path style="fill:#FFFFFF;" d="M144.051,73.836h223.9c4.309,0,7.801,3.492,7.801,7.801v55.523c0,4.309-3.492,7.801-7.801,7.801
	h-223.9c-4.309,0-7.801-3.492-7.801-7.801V81.637C136.249,77.328,139.742,73.836,144.051,73.836z"/>
<path style="fill:#FAD24D;" d="M356.879,144.96H155.117v270.147c0,12.683,10.374,23.057,23.057,23.057h155.643
	c12.683,0,23.057-10.374,23.057-23.057V144.96H356.879z"/>
<g>
	<path style="fill:#EDB937;" d="M356.879,144.96h-6.064v285.694c3.765-4.106,6.064-9.57,6.064-15.547V144.96z"/>
	<path style="fill:#EDB937;" d="M161.006,430.451c4.231,4.725,10.369,7.713,17.172,7.713h155.643c6.804,0,12.942-2.988,17.172-7.713
		H161.002H161.006z"/>
</g>
<path style="fill:#DCE3DB;" d="M361.964,82.09h-9.437v54.612h9.437V82.09z M159.473,82.09h-9.437v54.612h9.437V82.09z
	 M181.971,82.09h-9.437v54.612h9.437V82.09z M204.469,82.09h-9.437v54.612h9.437V82.09z M226.967,82.09h-9.432v54.612h9.432V82.09z
	 M249.465,82.09h-9.437v54.612h9.437V82.09z M271.963,82.09h-9.437v54.612h9.437V82.09z M294.461,82.09h-9.437v54.612h9.437V82.09z
	 M316.959,82.09h-9.437v54.612h9.437V82.09z M339.457,82.09h-9.437v54.612h9.437V82.09z"/>
<path style="fill:#EDB937;" d="M356.879,144.96H155.117l201.762,11.884V144.96z"/>
<rect x="255.8" y="225.619" style="fill:#FFFFFF;" width="101.083" height="104.636"/>
<rect x="317.919" y="241.588" style="fill:#21D0C3;" width="32.9" height="13.427"/>
<path style="fill:#DCE3DB;" d="M356.879,274.886h-74.233v3.335h74.233V274.886z M356.879,309.18h-51.975v3.334h51.975V309.18z
	 M356.879,297.749h-74.233v3.335h74.233V297.749z M356.879,286.318h-74.233v3.331h74.233V286.318z"/>
<rect x="255.8" y="330.265" style="fill:#EDB937;" width="101.083" height="2.25"/>
<rect x="350.815" y="225.619" style="fill:#DCE3DB;" width="6.064" height="104.636"/>
<path style="fill:#FF5B62;" d="M290.54,234.237h7.426v9.959h9.959v7.426h-9.959v9.959h-7.426v-9.959h-9.959v-7.426h9.959V234.237z"
	/>
<g>
</g>
<g>
</g>
<g>
</g>
<g>
</g>
<g>
</g>
<g>
</g>
<g>
</g>
<g>
</g>
<g>
</g>
<g>
</g>
<g>
</g>
<g>
</g>
<g>
</g>
<g>
</g>
<g>
</g>
</svg>
